<mxfile host="app.diagrams.net" modified="2023-09-25T09:59:51.935Z" agent="Mozilla/5.0 (Windows NT 10.0; Win64; x64) AppleWebKit/537.36 (KHTML, like Gecko) Chrome/117.0.0.0 Safari/537.36 Edg/117.0.2045.36" etag="5aJza7zbttT2dSpKz6l1" version="21.7.2" type="device">
  <diagram id="HoyL1kmzExl-TiO1cXHF" name="Page-1">
    <mxGraphModel dx="2084" dy="1154" grid="1" gridSize="10" guides="1" tooltips="1" connect="1" arrows="1" fold="1" page="1" pageScale="1" pageWidth="850" pageHeight="1100" math="0" shadow="0">
      <root>
        <mxCell id="0" />
        <mxCell id="1" parent="0" />
        <UserObject label="&lt;div style=&quot;font-size: 1px&quot;&gt;&lt;/div&gt;" tags="Background" id="LKzzzDuSQU892FBYnvWB-1">
          <mxCell style="verticalAlign=middle;align=center;overflow=width;vsdxID=3987;fillColor=none;gradientColor=none;shape=stencil(nZBLDsIwDAVP4y0yzoIDlHIBThARQyxCUqXhe3rSukhVFyy6s98by9KAaXpvOwbCvuR05ae44sHsgUii5yylTmBaMM05Zb7kdI9O985WknBM2OnNdqAJbT4d5cNTRpudxnp3S4/h30tb1Oo9saj7QdEgcYb+ylXwH3QluHhfh9GIupIQVOi8Xxqskdo37Rc=);dashed=1;dashPattern=12.00 6.00;strokeColor=#0000CC;strokeWidth=2;points=[[0.5,0,0],[0.5,1,0],[0,0.5,0],[0.5,0.5,0],[1,0.5,0]];labelBackgroundColor=none;rounded=1;html=1;whiteSpace=wrap;fontFamily=Helvetica;fontStyle=0" vertex="1" parent="1">
            <mxGeometry x="635" y="749" width="3302" height="2514" as="geometry" />
          </mxCell>
        </UserObject>
        <mxCell id="LKzzzDuSQU892FBYnvWB-2" value="External Users&lt;br&gt;" style="text;html=1;align=center;verticalAlign=middle;resizable=0;points=[];autosize=1;strokeColor=none;fillColor=none;" vertex="1" parent="1">
          <mxGeometry x="1268.5" y="250" width="100" height="30" as="geometry" />
        </mxCell>
        <UserObject label="" tags="Background" id="LKzzzDuSQU892FBYnvWB-3">
          <mxCell style="vsdxID=3961;fillColor=none;gradientColor=none;strokeColor=none;spacingTop=-3;spacingBottom=-3;spacingLeft=-3;spacingRight=-3;points=[[0.5,1,0],[0.5,0,0],[0.5,0.5,0],[1,0.5,0]];labelBackgroundColor=none;rounded=0;html=1;whiteSpace=wrap;" vertex="1" parent="1">
            <mxGeometry x="1290" y="170" width="57" height="53" as="geometry" />
          </mxCell>
        </UserObject>
        <mxCell id="LKzzzDuSQU892FBYnvWB-4" style="vsdxID=3962;fillColor=#000000;gradientColor=none;shape=stencil(tZPdboMwDIWfJpdYTsxPct117xG1AaIxQIGu7O0HM2hkGpoqbXfx8Uk+K7YFnYba9k4oHMbQvbi7v461oCehlG9rF/w4nwSdBZ3KLrgqdLf2ynFvF+dyeu3elhcmvmckoF5uKXxnRSJ+xs9st+Ey58JmTyFXbA+bP8sBDWuri4DS6E1jQG+WxE5+SEI32tF3LeeZiI0NlUtmYlI2topSw925fifL4xoxrg8B5e/V6f+r7nIL/ONyxeWw8VeFCshWaVIsaYQsX10qYk3EYWrAbJ2jveMAKw2QibkYMwmkipEkoTAxFmOkJiiy416kYPK4HRpkPCwIqvhxAP+qGdGvNL59ZPoftM+Hr0UrfdPwnu7z3xdzlnip6fwB);strokeColor=none;spacingTop=-3;spacingBottom=-3;spacingLeft=-3;spacingRight=-3;points=[[0.5,1.31,0],[0.5,0,0],[0,0.5,0],[1,0.5,0]];labelBackgroundColor=none;rounded=0;html=1;whiteSpace=wrap;" vertex="1" parent="LKzzzDuSQU892FBYnvWB-3">
          <mxGeometry y="16" width="32" height="19" as="geometry" />
        </mxCell>
        <mxCell id="LKzzzDuSQU892FBYnvWB-5" style="vsdxID=3963;fillColor=#FFFFFF;gradientColor=none;fillOpacity=80;strokeOpacity=80;shape=stencil(xVJBcsMgDHwNR2sEiu3knKb/YBpsM6XGI9PE+X1xIVPbmeTam9DuClasoOPY6cEIhWNg/2mu9hw6QW9CKdt3hm2IlaCToGPj2bTsv/tzOg96Zs7Vl7/ME6akKxF2clYpvKWOlED1b+c9CTR/RJSzoKpht08CzopSQp1nZBKuJh4OkBVToSc7FuyDDtb3K7LT3JoiXlY0TrcraLwaMyzacvk8Z/vXfhCf0+/gnYxQqefeJe2hprV5iRXQxj1g+bAA+scNbH80Fn95aKxzKU5LfJuf2ErZo9MP);strokeColor=none;spacingTop=-3;spacingBottom=-3;spacingLeft=-3;spacingRight=-3;points=[[0.5,1.31,0],[0.5,0,0],[0,0.5,0],[1,0.5,0]];labelBackgroundColor=none;rounded=0;html=1;whiteSpace=wrap;" vertex="1" parent="LKzzzDuSQU892FBYnvWB-3">
          <mxGeometry x="11" y="16" width="9" height="12" as="geometry" />
        </mxCell>
        <mxCell id="LKzzzDuSQU892FBYnvWB-6" style="vsdxID=3964;fillColor=#000000;gradientColor=none;shape=stencil(vVHLDsIgEPwajiQI6RfU+h8bu22JCGRB2/69kG1iazx58DazM/vIjjBtmiCi0CplCjecbZ8nYc5Ca+snJJsLEqYTph0C4Ujh4XvmEaqzont41gkL96naodXKrGF6YSfQtUi0OXXDVlqPfJNP6usotUhYbJIUMmQb/GGrAxpRljVycDBuc1hKM2LclX8/7H9nFfB+82Cd45T2+mcspcSRmu4F);strokeColor=none;spacingTop=-3;spacingBottom=-3;spacingLeft=-3;spacingRight=-3;points=[[0.5,1.31,0],[0.5,0,0],[0,0.5,0],[1,0.5,0]];labelBackgroundColor=none;rounded=0;html=1;whiteSpace=wrap;" vertex="1" parent="LKzzzDuSQU892FBYnvWB-3">
          <mxGeometry x="7" width="18" height="18" as="geometry" />
        </mxCell>
        <mxCell id="LKzzzDuSQU892FBYnvWB-8" style="edgeStyle=orthogonalEdgeStyle;rounded=0;orthogonalLoop=1;jettySize=auto;html=1;exitX=0.5;exitY=0;exitDx=0;exitDy=0;exitPerimeter=0;entryX=0.5;entryY=1.31;entryDx=0;entryDy=0;entryPerimeter=0;" edge="1" parent="LKzzzDuSQU892FBYnvWB-3" source="LKzzzDuSQU892FBYnvWB-7" target="LKzzzDuSQU892FBYnvWB-6">
          <mxGeometry relative="1" as="geometry" />
        </mxCell>
        <mxCell id="LKzzzDuSQU892FBYnvWB-7" value="&lt;div style=&quot;font-size: 1px&quot;&gt;&lt;/div&gt;" style="text;vsdxID=3961;fillColor=none;gradientColor=none;strokeColor=none;spacingTop=-3;spacingBottom=-3;spacingLeft=-3;spacingRight=-3;points=[[0.5,1,0],[0.5,0,0],[0.5,0.5,0],[1,0.5,0]];labelBackgroundColor=none;rounded=0;html=1;whiteSpace=wrap;verticalAlign=middle;align=center;overflow=width;;html=1;" vertex="1" parent="LKzzzDuSQU892FBYnvWB-3">
          <mxGeometry x="-34.44" y="35" width="101.6" height="15.24" as="geometry" />
        </mxCell>
        <UserObject label="" tags="Background" id="LKzzzDuSQU892FBYnvWB-9">
          <mxCell style="vsdxID=87;fillColor=none;gradientColor=none;strokeColor=none;spacingTop=-3;spacingBottom=-3;spacingLeft=-3;spacingRight=-3;points=[[0.5,0,0],[0.5,0.5,0],[1,0.5,0]];labelBackgroundColor=none;rounded=0;html=1;whiteSpace=wrap;" vertex="1" parent="LKzzzDuSQU892FBYnvWB-3">
            <mxGeometry x="25" y="18" width="32" height="35" as="geometry" />
          </mxCell>
        </UserObject>
        <mxCell id="LKzzzDuSQU892FBYnvWB-10" style="vsdxID=88;fillColor=#000000;gradientColor=none;shape=stencil(tVNBcsMgDHwNR2sABRvOafoPJsE2U9d4MGnc3xcXPC1NppMcchOrlXZBiOB+7vVkCKdz8O7NXOwp9ARfCOd27I23IUYEDwT3rfOm8+48ntJ50itzjd7dx9phSXWKAZVrFaefCWGUfp9fE137Y8z5TJcgm8T2G30HNSZoa6lAiaKlFIC5bKn0YufKu6CDdWPKJ0E6aN+ZKgpW7aC7IjVfjJmu4JsWOUhWWrzHIUItnufwePbp0Vk2UMMu62cEGxAZWnj2REHUmcULrQXzxeI9tuHhHbJMAapSl5aaCIyXksigUaUsLSXj2zXivy+j8OrLNOVAJFB28xM+ZRqDHR/ZgAfpMfhZttYOQ9rV3/m/yxmhtNh4+AI=);strokeColor=none;spacingTop=-3;spacingBottom=-3;spacingLeft=-3;spacingRight=-3;points=[[0.5,1.31,0],[0.5,0,0],[0,0.5,0],[1,0.5,0]];labelBackgroundColor=none;rounded=0;html=1;whiteSpace=wrap;" vertex="1" parent="LKzzzDuSQU892FBYnvWB-9">
          <mxGeometry y="16" width="32" height="19" as="geometry" />
        </mxCell>
        <mxCell id="LKzzzDuSQU892FBYnvWB-11" style="vsdxID=89;fillColor=#FFFFFF;gradientColor=none;fillOpacity=80;strokeOpacity=80;shape=stencil(xVJBEoIwDHxNj3TaBkTOiv/oSIGOlTKhCv7eYlGBGbl6S3azaTYNgUNXy1YRwTqH9qJ6XbiawJEIoZtaoXY+IpATOJQWVYX21hQhb+VYOUZXex87DEGXMBrzUSXYIyCcU0hfyCkIJJ49i5MgAyr2QYCTIuU0zgI0FbFFxykbIjnoLkLrpNO2WXBGYqUi/1JUGlktqK5Xqp3BfD6b0c22GcZ+l7/Jz5x0JzaMC8pgZZzRBBbGt9b5nwWsf9MH31sotTHhlOb8+nY8FO4O8ic=);strokeColor=none;spacingTop=-3;spacingBottom=-3;spacingLeft=-3;spacingRight=-3;points=[[0.5,1.31,0],[0.5,0,0],[0,0.5,0],[1,0.5,0]];labelBackgroundColor=none;rounded=0;html=1;whiteSpace=wrap;" vertex="1" parent="LKzzzDuSQU892FBYnvWB-9">
          <mxGeometry x="11" y="16" width="9" height="12" as="geometry" />
        </mxCell>
        <mxCell id="LKzzzDuSQU892FBYnvWB-12" style="vsdxID=90;fillColor=#000000;gradientColor=none;shape=stencil(vVHLDsIgEPwajiQI6RfU+h8bu22JCGRB2/69kG1iazx58DazM/vIjjBtmiCi0CplCjecbZ8nYc5Ca+snJJsLEqYTph0C4Ujh4XvmEaqzont41gkL96naodXKrGF6YSfQtUi0OXXDVlqPfJNP6usotUhYbJIUMmQb/GGrAxpRljVycDBuc1hKM2LclX8/7H9nFfB+82Cd45T2+mcspcSRmu4F);strokeColor=none;spacingTop=-3;spacingBottom=-3;spacingLeft=-3;spacingRight=-3;points=[[0.5,1.31,0],[0.5,0,0],[0,0.5,0],[1,0.5,0]];labelBackgroundColor=none;rounded=0;html=1;whiteSpace=wrap;" vertex="1" parent="LKzzzDuSQU892FBYnvWB-9">
          <mxGeometry x="7" width="18" height="18" as="geometry" />
        </mxCell>
        <mxCell id="LKzzzDuSQU892FBYnvWB-13" value="&lt;div style=&quot;font-size: 1px&quot;&gt;&lt;font style=&quot;font-size:12.7px;font-family:Calibri;color:#000000;direction:ltr;letter-spacing:0px;line-height:120%;opacity:1&quot;&gt;External Users&lt;br/&gt;&lt;/font&gt;&lt;/div&gt;" style="text;vsdxID=87;fillColor=none;gradientColor=none;strokeColor=none;spacingTop=-3;spacingBottom=-3;spacingLeft=-3;spacingRight=-3;points=[[0.5,0,0],[0.5,0.5,0],[1,0.5,0]];labelBackgroundColor=none;rounded=0;html=1;whiteSpace=wrap;verticalAlign=middle;align=center;overflow=width;;html=1;" vertex="1" parent="LKzzzDuSQU892FBYnvWB-9">
          <mxGeometry x="-34.44" y="35" width="101.6" height="15.25" as="geometry" />
        </mxCell>
        <mxCell id="LKzzzDuSQU892FBYnvWB-14" style="edgeStyle=orthogonalEdgeStyle;rounded=0;orthogonalLoop=1;jettySize=auto;html=1;exitX=1;exitY=0.5;exitDx=0;exitDy=0;exitPerimeter=0;entryX=0;entryY=0.5;entryDx=0;entryDy=0;entryPerimeter=0;" edge="1" parent="LKzzzDuSQU892FBYnvWB-9" source="LKzzzDuSQU892FBYnvWB-12" target="LKzzzDuSQU892FBYnvWB-12">
          <mxGeometry relative="1" as="geometry" />
        </mxCell>
        <UserObject label="&lt;div style=&quot;font-size: 1px&quot;&gt;&lt;font style=&quot;font-size:16.93px;font-family:Calibri;color:#73acd9;direction:ltr;letter-spacing:0px;line-height:120%;opacity:1&quot;&gt;&lt;b&gt;User Web&lt;br&gt;&lt;/b&gt;&lt;/font&gt;&lt;/div&gt;" tags="Background" id="LKzzzDuSQU892FBYnvWB-15">
          <mxCell style="verticalAlign=middle;align=center;overflow=width;vsdxID=91;fillColor=#feffff;gradientColor=none;shape=stencil(nZBLDoAgDERP0z3SIyjew0SURgSD+Lu9kMZoXLhwN9O+tukAlrNpJg1SzDH4QW/URgNYgZTkjA4UkwJUgGXng+6DX1zLfmoymdXo17xh5zmRJ6Q42BWCfc2oJfdAr+Yv+AP9Cb7OJ3H/2JG1HNGz/84klThPVCc=);strokeColor=#73acd9;points=[];labelBackgroundColor=none;rounded=0;html=1;whiteSpace=wrap;" vertex="1" parent="1">
            <mxGeometry x="1370" y="140" width="85" height="51" as="geometry" />
          </mxCell>
        </UserObject>
        <UserObject label="&lt;div style=&quot;font-size: 1px&quot;&gt;&lt;/div&gt;" tags="Background" id="LKzzzDuSQU892FBYnvWB-17">
          <mxCell style="verticalAlign=middle;align=center;overflow=width;vsdxID=3987;fillColor=none;gradientColor=none;shape=stencil(nZBLDsIwDAVP4y0yzoIDlHIBThARQyxCUqXhe3rSukhVFyy6s98by9KAaXpvOwbCvuR05ae44sHsgUii5yylTmBaMM05Zb7kdI9O985WknBM2OnNdqAJbT4d5cNTRpudxnp3S4/h30tb1Oo9saj7QdEgcYb+ylXwH3QluHhfh9GIupIQVOi8Xxqskdo37Rc=);dashed=1;dashPattern=12.00 6.00;strokeColor=#000000;strokeWidth=2;points=[[0.5,0,0],[0.5,1,0],[0,0.5,0],[0.5,0.5,0],[1,0.5,0]];labelBackgroundColor=none;rounded=1;html=1;whiteSpace=wrap;" vertex="1" parent="1">
            <mxGeometry x="720" y="850" width="1840" height="780" as="geometry" />
          </mxCell>
        </UserObject>
        <mxCell id="LKzzzDuSQU892FBYnvWB-18" value="Hub Subscription" style="text;html=1;strokeColor=none;fillColor=none;align=center;verticalAlign=middle;whiteSpace=wrap;rounded=0;" vertex="1" parent="1">
          <mxGeometry x="730" y="800" width="130" height="30" as="geometry" />
        </mxCell>
        <mxCell id="LKzzzDuSQU892FBYnvWB-19" value="" style="image;aspect=fixed;html=1;points=[];align=center;fontSize=12;image=img/lib/azure2/general/Subscriptions.svg;" vertex="1" parent="1">
          <mxGeometry x="700" y="780" width="24.79" height="40" as="geometry" />
        </mxCell>
        <UserObject label="&lt;div style=&quot;font-size: 1px&quot;&gt;&lt;/div&gt;" tags="Background" id="LKzzzDuSQU892FBYnvWB-20">
          <mxCell style="verticalAlign=middle;align=center;overflow=width;vsdxID=3987;fillColor=none;gradientColor=none;shape=stencil(nZBLDsIwDAVP4y0yzoIDlHIBThARQyxCUqXhe3rSukhVFyy6s98by9KAaXpvOwbCvuR05ae44sHsgUii5yylTmBaMM05Zb7kdI9O985WknBM2OnNdqAJbT4d5cNTRpudxnp3S4/h30tb1Oo9saj7QdEgcYb+ylXwH3QluHhfh9GIupIQVOi8Xxqskdo37Rc=);dashed=1;dashPattern=12.00 6.00;strokeColor=#000000;strokeWidth=2;points=[[0.5,0,0],[0.5,1,0],[0,0.5,0],[0.5,0.5,0],[1,0.5,0]];labelBackgroundColor=none;rounded=1;html=1;whiteSpace=wrap;" vertex="1" parent="1">
            <mxGeometry x="750" y="890" width="1720" height="120" as="geometry" />
          </mxCell>
        </UserObject>
        <UserObject label="&lt;div style=&quot;font-size: 1px&quot;&gt;&lt;/div&gt;" tags="Background" id="LKzzzDuSQU892FBYnvWB-21">
          <mxCell style="verticalAlign=middle;align=center;overflow=width;vsdxID=3987;fillColor=none;gradientColor=none;shape=stencil(nZBLDsIwDAVP4y0yzoIDlHIBThARQyxCUqXhe3rSukhVFyy6s98by9KAaXpvOwbCvuR05ae44sHsgUii5yylTmBaMM05Zb7kdI9O985WknBM2OnNdqAJbT4d5cNTRpudxnp3S4/h30tb1Oo9saj7QdEgcYb+ylXwH3QluHhfh9GIupIQVOi8Xxqskdo37Rc=);dashed=1;dashPattern=12.00 6.00;strokeColor=#000000;strokeWidth=2;points=[[0.5,0,0],[0.5,1,0],[0,0.5,0],[0.5,0.5,0],[1,0.5,0]];labelBackgroundColor=none;rounded=1;html=1;whiteSpace=wrap;" vertex="1" parent="1">
            <mxGeometry x="750" y="1050" width="1730" height="480" as="geometry" />
          </mxCell>
        </UserObject>
        <mxCell id="LKzzzDuSQU892FBYnvWB-22" value="Front Door" style="image;aspect=fixed;html=1;points=[];align=center;fontSize=12;image=img/lib/azure2/networking/Front_Doors.svg;" vertex="1" parent="1">
          <mxGeometry x="1370" y="910" width="68" height="60" as="geometry" />
        </mxCell>
        <mxCell id="LKzzzDuSQU892FBYnvWB-23" value="CDN" style="image;aspect=fixed;html=1;points=[];align=center;fontSize=12;image=img/lib/azure2/app_services/CDN_Profiles.svg;" vertex="1" parent="1">
          <mxGeometry x="1207" y="930" width="68" height="40" as="geometry" />
        </mxCell>
        <mxCell id="LKzzzDuSQU892FBYnvWB-25" value="" style="verticalLabelPosition=bottom;html=1;verticalAlign=top;align=center;strokeColor=none;fillColor=#00BEF2;shape=mxgraph.azure.virtual_network;pointerEvents=1;" vertex="1" parent="1">
          <mxGeometry x="2340" y="1020" width="90" height="50" as="geometry" />
        </mxCell>
        <UserObject label="e&lt;div style=&quot;font-size: 1px&quot;&gt;&lt;/div&gt;" tags="Background" id="LKzzzDuSQU892FBYnvWB-26">
          <mxCell style="verticalAlign=middle;align=center;overflow=width;vsdxID=3987;fillColor=none;gradientColor=none;shape=stencil(nZBLDsIwDAVP4y0yzoIDlHIBThARQyxCUqXhe3rSukhVFyy6s98by9KAaXpvOwbCvuR05ae44sHsgUii5yylTmBaMM05Zb7kdI9O985WknBM2OnNdqAJbT4d5cNTRpudxnp3S4/h30tb1Oo9saj7QdEgcYb+ylXwH3QluHhfh9GIupIQVOi8Xxqskdo37Rc=);dashed=1;dashPattern=12.00 6.00;strokeColor=#000000;strokeWidth=2;points=[[0.5,0,0],[0.5,1,0],[0,0.5,0],[0.5,0.5,0],[1,0.5,0]];labelBackgroundColor=none;rounded=1;html=1;whiteSpace=wrap;" vertex="1" parent="1">
            <mxGeometry x="777" y="1070" width="753" height="170" as="geometry" />
          </mxCell>
        </UserObject>
        <UserObject label="&lt;div style=&quot;font-size: 1px&quot;&gt;&lt;/div&gt;" tags="Background" id="LKzzzDuSQU892FBYnvWB-27">
          <mxCell style="verticalAlign=middle;align=center;overflow=width;vsdxID=3987;fillColor=none;gradientColor=none;shape=stencil(nZBLDsIwDAVP4y0yzoIDlHIBThARQyxCUqXhe3rSukhVFyy6s98by9KAaXpvOwbCvuR05ae44sHsgUii5yylTmBaMM05Zb7kdI9O985WknBM2OnNdqAJbT4d5cNTRpudxnp3S4/h30tb1Oo9saj7QdEgcYb+ylXwH3QluHhfh9GIupIQVOi8Xxqskdo37Rc=);dashed=1;dashPattern=12.00 6.00;strokeColor=#000000;strokeWidth=2;points=[[0.5,0,0],[0.5,1,0],[0,0.5,0],[0.5,0.5,0],[1,0.5,0]];labelBackgroundColor=none;rounded=1;html=1;whiteSpace=wrap;" vertex="1" parent="1">
            <mxGeometry x="1570" y="1070" width="770" height="170" as="geometry" />
          </mxCell>
        </UserObject>
        <mxCell id="LKzzzDuSQU892FBYnvWB-28" value="" style="image;aspect=fixed;html=1;points=[];align=center;fontSize=12;image=img/lib/azure2/networking/Virtual_Network_Gateways.svg;" vertex="1" parent="1">
          <mxGeometry x="1120" y="1121" width="52" height="69" as="geometry" />
        </mxCell>
        <mxCell id="LKzzzDuSQU892FBYnvWB-29" value="" style="image;aspect=fixed;html=1;points=[];align=center;fontSize=12;image=img/lib/azure2/networking/Application_Gateways.svg;" vertex="1" parent="1">
          <mxGeometry x="1840" y="1126" width="64" height="64" as="geometry" />
        </mxCell>
        <UserObject label="&lt;div style=&quot;font-size: 1px&quot;&gt;&lt;/div&gt;" tags="Background" id="LKzzzDuSQU892FBYnvWB-31">
          <mxCell style="verticalAlign=middle;align=center;overflow=width;vsdxID=3987;fillColor=none;gradientColor=none;shape=stencil(nZBLDsIwDAVP4y0yzoIDlHIBThARQyxCUqXhe3rSukhVFyy6s98by9KAaXpvOwbCvuR05ae44sHsgUii5yylTmBaMM05Zb7kdI9O985WknBM2OnNdqAJbT4d5cNTRpudxnp3S4/h30tb1Oo9saj7QdEgcYb+ylXwH3QluHhfh9GIupIQVOi8Xxqskdo37Rc=);dashed=1;dashPattern=12.00 6.00;strokeColor=#000000;strokeWidth=2;points=[[0.5,0,0],[0.5,1,0],[0,0.5,0],[0.5,0.5,0],[1,0.5,0]];labelBackgroundColor=none;rounded=1;html=1;whiteSpace=wrap;" vertex="1" parent="1">
            <mxGeometry x="770" y="1280" width="1570" height="170" as="geometry" />
          </mxCell>
        </UserObject>
        <mxCell id="LKzzzDuSQU892FBYnvWB-33" value="" style="image;sketch=0;aspect=fixed;html=1;points=[];align=center;fontSize=12;image=img/lib/mscae/Azure_Firewall.svg;" vertex="1" parent="1">
          <mxGeometry x="1520" y="1340" width="50" height="50" as="geometry" />
        </mxCell>
        <mxCell id="LKzzzDuSQU892FBYnvWB-34" value="VnetGetway Subnet" style="text;html=1;strokeColor=none;fillColor=none;align=center;verticalAlign=middle;whiteSpace=wrap;rounded=0;" vertex="1" parent="1">
          <mxGeometry x="812" y="1080" width="60" height="30" as="geometry" />
        </mxCell>
        <mxCell id="LKzzzDuSQU892FBYnvWB-35" value="AppGateway subnet" style="text;html=1;strokeColor=none;fillColor=none;align=center;verticalAlign=middle;whiteSpace=wrap;rounded=0;" vertex="1" parent="1">
          <mxGeometry x="1600" y="1070" width="60" height="30" as="geometry" />
        </mxCell>
        <UserObject label="&lt;div style=&quot;font-size: 1px&quot;&gt;&lt;/div&gt;" tags="Background" id="LKzzzDuSQU892FBYnvWB-36">
          <mxCell style="verticalAlign=middle;align=center;overflow=width;vsdxID=3987;fillColor=none;gradientColor=none;shape=stencil(nZBLDsIwDAVP4y0yzoIDlHIBThARQyxCUqXhe3rSukhVFyy6s98by9KAaXpvOwbCvuR05ae44sHsgUii5yylTmBaMM05Zb7kdI9O985WknBM2OnNdqAJbT4d5cNTRpudxnp3S4/h30tb1Oo9saj7QdEgcYb+ylXwH3QluHhfh9GIupIQVOi8Xxqskdo37Rc=);dashed=1;dashPattern=12.00 6.00;strokeColor=#000000;strokeWidth=2;points=[[0.5,0,0],[0.5,1,0],[0,0.5,0],[0.5,0.5,0],[1,0.5,0]];labelBackgroundColor=none;rounded=1;html=1;whiteSpace=wrap;" vertex="1" parent="1">
            <mxGeometry x="710" y="1910" width="1840" height="1080" as="geometry" />
          </mxCell>
        </UserObject>
        <mxCell id="LKzzzDuSQU892FBYnvWB-38" value="" style="endArrow=classic;startArrow=classic;html=1;rounded=0;entryX=0.447;entryY=1.01;entryDx=0;entryDy=0;entryPerimeter=0;fillColor=#fa6800;strokeColor=#3333FF;" edge="1" parent="1" target="LKzzzDuSQU892FBYnvWB-21">
          <mxGeometry width="50" height="50" relative="1" as="geometry">
            <mxPoint x="1520" y="1910" as="sourcePoint" />
            <mxPoint x="1520" y="1650" as="targetPoint" />
          </mxGeometry>
        </mxCell>
        <mxCell id="LKzzzDuSQU892FBYnvWB-40" value="Vnet Peering" style="text;html=1;strokeColor=none;fillColor=none;align=center;verticalAlign=middle;whiteSpace=wrap;rounded=0;fontSize=31;" vertex="1" parent="1">
          <mxGeometry x="1280" y="1680" width="280" height="70" as="geometry" />
        </mxCell>
        <mxCell id="LKzzzDuSQU892FBYnvWB-43" value="" style="endArrow=classic;startArrow=classic;html=1;rounded=0;entryX=0.551;entryY=1.146;entryDx=0;entryDy=0;entryPerimeter=0;exitX=0.641;exitY=0.008;exitDx=0;exitDy=0;exitPerimeter=0;" edge="1" parent="1" source="LKzzzDuSQU892FBYnvWB-22" target="LKzzzDuSQU892FBYnvWB-15">
          <mxGeometry width="50" height="50" relative="1" as="geometry">
            <mxPoint x="1520" y="460" as="sourcePoint" />
            <mxPoint x="1570" y="410" as="targetPoint" />
          </mxGeometry>
        </mxCell>
        <mxCell id="LKzzzDuSQU892FBYnvWB-74" value="Remote Users" style="text;html=1;strokeColor=none;fillColor=none;align=center;verticalAlign=middle;whiteSpace=wrap;rounded=0;fontSize=21;" vertex="1" parent="1">
          <mxGeometry x="78.75" y="1180" width="210" height="30" as="geometry" />
        </mxCell>
        <mxCell id="LKzzzDuSQU892FBYnvWB-75" value="" style="verticalLabelPosition=bottom;html=1;verticalAlign=top;align=center;strokeColor=none;fillColor=#00BEF2;shape=mxgraph.azure.user;" vertex="1" parent="1">
          <mxGeometry x="160" y="1110" width="47.5" height="50" as="geometry" />
        </mxCell>
        <mxCell id="LKzzzDuSQU892FBYnvWB-76" value="" style="verticalLabelPosition=bottom;html=1;verticalAlign=top;align=center;strokeColor=none;fillColor=#00BEF2;shape=mxgraph.azure.user;" vertex="1" parent="1">
          <mxGeometry x="180" y="1135" width="47.5" height="50" as="geometry" />
        </mxCell>
        <mxCell id="LKzzzDuSQU892FBYnvWB-77" value="" style="endArrow=classic;html=1;rounded=0;entryX=0.402;entryY=0.512;entryDx=0;entryDy=0;entryPerimeter=0;" edge="1" parent="1" target="LKzzzDuSQU892FBYnvWB-26">
          <mxGeometry width="50" height="50" relative="1" as="geometry">
            <mxPoint x="230" y="1160" as="sourcePoint" />
            <mxPoint x="280" y="1110" as="targetPoint" />
          </mxGeometry>
        </mxCell>
        <mxCell id="LKzzzDuSQU892FBYnvWB-79" value="P2S VPN" style="edgeLabel;html=1;align=center;verticalAlign=middle;resizable=0;points=[];fontSize=26;" vertex="1" connectable="0" parent="LKzzzDuSQU892FBYnvWB-77">
          <mxGeometry x="-0.4408" y="-1" relative="1" as="geometry">
            <mxPoint as="offset" />
          </mxGeometry>
        </mxCell>
        <mxCell id="LKzzzDuSQU892FBYnvWB-80" value="" style="endArrow=classic;startArrow=classic;html=1;rounded=0;exitX=0.471;exitY=0.412;exitDx=0;exitDy=0;exitPerimeter=0;entryX=1.185;entryY=0.693;entryDx=0;entryDy=0;entryPerimeter=0;" edge="1" parent="1" source="LKzzzDuSQU892FBYnvWB-31" target="LKzzzDuSQU892FBYnvWB-28">
          <mxGeometry width="50" height="50" relative="1" as="geometry">
            <mxPoint x="1200" y="1270" as="sourcePoint" />
            <mxPoint x="1250" y="1220" as="targetPoint" />
          </mxGeometry>
        </mxCell>
        <mxCell id="LKzzzDuSQU892FBYnvWB-81" value="" style="endArrow=classic;startArrow=classic;html=1;rounded=0;" edge="1" parent="1" source="LKzzzDuSQU892FBYnvWB-29" target="LKzzzDuSQU892FBYnvWB-22">
          <mxGeometry width="50" height="50" relative="1" as="geometry">
            <mxPoint x="1690" y="1090" as="sourcePoint" />
            <mxPoint x="1740" y="1040" as="targetPoint" />
          </mxGeometry>
        </mxCell>
        <mxCell id="LKzzzDuSQU892FBYnvWB-82" value="" style="endArrow=classic;startArrow=classic;html=1;rounded=0;" edge="1" parent="1">
          <mxGeometry width="50" height="50" relative="1" as="geometry">
            <mxPoint x="1570" y="900" as="sourcePoint" />
            <mxPoint x="1620" y="850" as="targetPoint" />
          </mxGeometry>
        </mxCell>
        <mxCell id="LKzzzDuSQU892FBYnvWB-83" value="" style="endArrow=classic;startArrow=classic;html=1;rounded=0;" edge="1" parent="1" target="LKzzzDuSQU892FBYnvWB-29">
          <mxGeometry width="50" height="50" relative="1" as="geometry">
            <mxPoint x="1600" y="1340" as="sourcePoint" />
            <mxPoint x="1650" y="1290" as="targetPoint" />
          </mxGeometry>
        </mxCell>
        <UserObject label="&lt;div style=&quot;font-size: 1px&quot;&gt;&lt;/div&gt;" tags="Background" id="LKzzzDuSQU892FBYnvWB-84">
          <mxCell style="verticalAlign=middle;align=center;overflow=width;vsdxID=3987;fillColor=none;gradientColor=none;shape=stencil(nZBLDsIwDAVP4y0yzoIDlHIBThARQyxCUqXhe3rSukhVFyy6s98by9KAaXpvOwbCvuR05ae44sHsgUii5yylTmBaMM05Zb7kdI9O985WknBM2OnNdqAJbT4d5cNTRpudxnp3S4/h30tb1Oo9saj7QdEgcYb+ylXwH3QluHhfh9GIupIQVOi8Xxqskdo37Rc=);dashed=1;dashPattern=12.00 6.00;strokeColor=#000000;strokeWidth=2;points=[[0.5,0,0],[0.5,1,0],[0,0.5,0],[0.5,0.5,0],[1,0.5,0]];labelBackgroundColor=none;rounded=1;html=1;whiteSpace=wrap;" vertex="1" parent="1">
            <mxGeometry x="750" y="1960" width="1640" height="920" as="geometry" />
          </mxCell>
        </UserObject>
        <mxCell id="LKzzzDuSQU892FBYnvWB-85" value="Spoke Subscription" style="text;html=1;strokeColor=none;fillColor=none;align=center;verticalAlign=middle;whiteSpace=wrap;rounded=0;fontSize=19;" vertex="1" parent="1">
          <mxGeometry x="765" y="1850" width="375" height="60" as="geometry" />
        </mxCell>
        <mxCell id="LKzzzDuSQU892FBYnvWB-86" value="" style="image;aspect=fixed;html=1;points=[];align=center;fontSize=12;image=img/lib/azure2/general/Subscriptions.svg;" vertex="1" parent="1">
          <mxGeometry x="800" y="1830" width="44" height="71" as="geometry" />
        </mxCell>
        <mxCell id="LKzzzDuSQU892FBYnvWB-87" value="" style="verticalLabelPosition=bottom;html=1;verticalAlign=top;align=center;strokeColor=none;fillColor=#00BEF2;shape=mxgraph.azure.virtual_network;pointerEvents=1;" vertex="1" parent="1">
          <mxGeometry x="2280" y="1930" width="100" height="60" as="geometry" />
        </mxCell>
        <UserObject label="&lt;div style=&quot;font-size: 1px&quot;&gt;&lt;/div&gt;" tags="Background" id="LKzzzDuSQU892FBYnvWB-90">
          <mxCell style="verticalAlign=middle;align=center;overflow=width;vsdxID=3987;fillColor=none;gradientColor=none;shape=stencil(nZBLDsIwDAVP4y0yzoIDlHIBThARQyxCUqXhe3rSukhVFyy6s98by9KAaXpvOwbCvuR05ae44sHsgUii5yylTmBaMM05Zb7kdI9O985WknBM2OnNdqAJbT4d5cNTRpudxnp3S4/h30tb1Oo9saj7QdEgcYb+ylXwH3QluHhfh9GIupIQVOi8Xxqskdo37Rc=);strokeColor=#000000;strokeWidth=2;points=[[0.5,0,0],[0.5,1,0],[0,0.5,0],[0.5,0.5,0],[1,0.5,0]];labelBackgroundColor=none;rounded=1;html=1;whiteSpace=wrap;" vertex="1" parent="1">
            <mxGeometry x="1150" y="2070" width="580" height="760" as="geometry" />
          </mxCell>
        </UserObject>
        <mxCell id="LKzzzDuSQU892FBYnvWB-91" value="" style="image;aspect=fixed;html=1;points=[];align=center;fontSize=12;image=img/lib/azure2/compute/Kubernetes_Services.svg;" vertex="1" parent="1">
          <mxGeometry x="1652" y="2020" width="68" height="60" as="geometry" />
        </mxCell>
        <mxCell id="LKzzzDuSQU892FBYnvWB-92" value="" style="endArrow=classic;startArrow=classic;html=1;rounded=0;exitX=0.707;exitY=0.002;exitDx=0;exitDy=0;exitPerimeter=0;" edge="1" parent="1" source="LKzzzDuSQU892FBYnvWB-90" target="LKzzzDuSQU892FBYnvWB-31">
          <mxGeometry width="50" height="50" relative="1" as="geometry">
            <mxPoint x="1340" y="1760" as="sourcePoint" />
            <mxPoint x="1390" y="1710" as="targetPoint" />
          </mxGeometry>
        </mxCell>
        <mxCell id="LKzzzDuSQU892FBYnvWB-112" value="" style="edgeStyle=orthogonalEdgeStyle;rounded=0;orthogonalLoop=1;jettySize=auto;html=1;" edge="1" parent="1" source="LKzzzDuSQU892FBYnvWB-93" target="LKzzzDuSQU892FBYnvWB-98">
          <mxGeometry relative="1" as="geometry" />
        </mxCell>
        <mxCell id="LKzzzDuSQU892FBYnvWB-93" value="" style="image;aspect=fixed;html=1;points=[];align=center;fontSize=12;image=img/lib/azure2/networking/Load_Balancers.svg;" vertex="1" parent="1">
          <mxGeometry x="1420" y="2090" width="50" height="50" as="geometry" />
        </mxCell>
        <mxCell id="LKzzzDuSQU892FBYnvWB-95" value="" style="sketch=0;html=1;dashed=0;whitespace=wrap;fillColor=#2875E2;strokeColor=#ffffff;points=[[0.005,0.63,0],[0.1,0.2,0],[0.9,0.2,0],[0.5,0,0],[0.995,0.63,0],[0.72,0.99,0],[0.5,1,0],[0.28,0.99,0]];verticalLabelPosition=bottom;align=center;verticalAlign=top;shape=mxgraph.kubernetes.icon;prIcon=pod" vertex="1" parent="1">
          <mxGeometry x="1290" y="2670" width="50" height="48" as="geometry" />
        </mxCell>
        <mxCell id="LKzzzDuSQU892FBYnvWB-96" value="" style="sketch=0;html=1;dashed=0;whitespace=wrap;fillColor=#2875E2;strokeColor=#ffffff;points=[[0.005,0.63,0],[0.1,0.2,0],[0.9,0.2,0],[0.5,0,0],[0.995,0.63,0],[0.72,0.99,0],[0.5,1,0],[0.28,0.99,0]];verticalLabelPosition=bottom;align=center;verticalAlign=top;shape=mxgraph.kubernetes.icon;prIcon=pod" vertex="1" parent="1">
          <mxGeometry x="1384" y="2670" width="50" height="48" as="geometry" />
        </mxCell>
        <mxCell id="LKzzzDuSQU892FBYnvWB-97" value="" style="sketch=0;html=1;dashed=0;whitespace=wrap;fillColor=#2875E2;strokeColor=#ffffff;points=[[0.005,0.63,0],[0.1,0.2,0],[0.9,0.2,0],[0.5,0,0],[0.995,0.63,0],[0.72,0.99,0],[0.5,1,0],[0.28,0.99,0]];verticalLabelPosition=bottom;align=center;verticalAlign=top;shape=mxgraph.kubernetes.icon;prIcon=pod" vertex="1" parent="1">
          <mxGeometry x="1602" y="2670" width="50" height="48" as="geometry" />
        </mxCell>
        <mxCell id="LKzzzDuSQU892FBYnvWB-98" value="Ingress&lt;br&gt;" style="sketch=0;html=1;dashed=0;whitespace=wrap;fillColor=#2875E2;strokeColor=#ffffff;points=[[0.005,0.63,0],[0.1,0.2,0],[0.9,0.2,0],[0.5,0,0],[0.995,0.63,0],[0.72,0.99,0],[0.5,1,0],[0.28,0.99,0]];verticalLabelPosition=bottom;align=center;verticalAlign=top;shape=mxgraph.kubernetes.icon;prIcon=ing" vertex="1" parent="1">
          <mxGeometry x="1420" y="2240" width="50" height="80" as="geometry" />
        </mxCell>
        <mxCell id="LKzzzDuSQU892FBYnvWB-117" style="edgeStyle=orthogonalEdgeStyle;rounded=0;orthogonalLoop=1;jettySize=auto;html=1;exitX=0.5;exitY=1;exitDx=0;exitDy=0;exitPerimeter=0;entryX=0.5;entryY=0;entryDx=0;entryDy=0;entryPerimeter=0;" edge="1" parent="1" source="LKzzzDuSQU892FBYnvWB-99" target="LKzzzDuSQU892FBYnvWB-100">
          <mxGeometry relative="1" as="geometry" />
        </mxCell>
        <mxCell id="LKzzzDuSQU892FBYnvWB-99" value="Servce" style="sketch=0;html=1;dashed=0;whitespace=wrap;fillColor=#2875E2;strokeColor=#ffffff;points=[[0.005,0.63,0],[0.1,0.2,0],[0.9,0.2,0],[0.5,0,0],[0.995,0.63,0],[0.72,0.99,0],[0.5,1,0],[0.28,0.99,0]];verticalLabelPosition=bottom;align=center;verticalAlign=top;shape=mxgraph.kubernetes.icon;prIcon=svc" vertex="1" parent="1">
          <mxGeometry x="1420" y="2350" width="50" height="48" as="geometry" />
        </mxCell>
        <mxCell id="LKzzzDuSQU892FBYnvWB-127" style="edgeStyle=orthogonalEdgeStyle;rounded=0;orthogonalLoop=1;jettySize=auto;html=1;exitX=0.5;exitY=1;exitDx=0;exitDy=0;exitPerimeter=0;entryX=0.5;entryY=0;entryDx=0;entryDy=0;entryPerimeter=0;" edge="1" parent="1" source="LKzzzDuSQU892FBYnvWB-100" target="LKzzzDuSQU892FBYnvWB-124">
          <mxGeometry relative="1" as="geometry" />
        </mxCell>
        <mxCell id="LKzzzDuSQU892FBYnvWB-100" value="Deployment" style="sketch=0;html=1;dashed=0;whitespace=wrap;fillColor=#2875E2;strokeColor=#ffffff;points=[[0.005,0.63,0],[0.1,0.2,0],[0.9,0.2,0],[0.5,0,0],[0.995,0.63,0],[0.72,0.99,0],[0.5,1,0],[0.28,0.99,0]];verticalLabelPosition=bottom;align=center;verticalAlign=top;shape=mxgraph.kubernetes.icon;prIcon=deploy" vertex="1" parent="1">
          <mxGeometry x="1425" y="2470" width="50" height="48" as="geometry" />
        </mxCell>
        <mxCell id="LKzzzDuSQU892FBYnvWB-109" value="" style="sketch=0;html=1;dashed=0;whitespace=wrap;fillColor=#2875E2;strokeColor=#ffffff;points=[[0.005,0.63,0],[0.1,0.2,0],[0.9,0.2,0],[0.5,0,0],[0.995,0.63,0],[0.72,0.99,0],[0.5,1,0],[0.28,0.99,0]];verticalLabelPosition=bottom;align=center;verticalAlign=top;shape=mxgraph.kubernetes.icon;prIcon=pod" vertex="1" parent="1">
          <mxGeometry x="1510" y="2670" width="50" height="48" as="geometry" />
        </mxCell>
        <mxCell id="LKzzzDuSQU892FBYnvWB-123" style="edgeStyle=orthogonalEdgeStyle;rounded=0;orthogonalLoop=1;jettySize=auto;html=1;exitX=0.995;exitY=0.63;exitDx=0;exitDy=0;exitPerimeter=0;entryX=0.632;entryY=0.35;entryDx=0;entryDy=0;entryPerimeter=0;" edge="1" parent="1" source="LKzzzDuSQU892FBYnvWB-109" target="LKzzzDuSQU892FBYnvWB-109">
          <mxGeometry relative="1" as="geometry" />
        </mxCell>
        <UserObject label="PODS&lt;div style=&quot;font-size: 1px&quot;&gt;&lt;/div&gt;" tags="Background" id="LKzzzDuSQU892FBYnvWB-124">
          <mxCell style="verticalAlign=middle;align=center;overflow=width;vsdxID=3987;fillColor=none;gradientColor=none;shape=stencil(nZBLDsIwDAVP4y0yzoIDlHIBThARQyxCUqXhe3rSukhVFyy6s98by9KAaXpvOwbCvuR05ae44sHsgUii5yylTmBaMM05Zb7kdI9O985WknBM2OnNdqAJbT4d5cNTRpudxnp3S4/h30tb1Oo9saj7QdEgcYb+ylXwH3QluHhfh9GIupIQVOi8Xxqskdo37Rc=);strokeColor=#000000;strokeWidth=2;points=[[0.5,0,0],[0.5,1,0],[0,0.5,0],[0.5,0.5,0],[1,0.5,0]];labelBackgroundColor=none;rounded=1;html=1;whiteSpace=wrap;" vertex="1" parent="1">
            <mxGeometry x="1220" y="2630" width="470" height="140" as="geometry" />
          </mxCell>
        </UserObject>
        <mxCell id="LKzzzDuSQU892FBYnvWB-126" style="edgeStyle=orthogonalEdgeStyle;rounded=0;orthogonalLoop=1;jettySize=auto;html=1;entryX=1.008;entryY=0.318;entryDx=0;entryDy=0;entryPerimeter=0;" edge="1" parent="1" source="LKzzzDuSQU892FBYnvWB-125" target="LKzzzDuSQU892FBYnvWB-90">
          <mxGeometry relative="1" as="geometry" />
        </mxCell>
        <mxCell id="LKzzzDuSQU892FBYnvWB-125" value="" style="image;aspect=fixed;html=1;points=[];align=center;fontSize=12;image=img/lib/azure2/databases/SQL_Managed_Instance.svg;" vertex="1" parent="1">
          <mxGeometry x="2040" y="2250" width="121.88" height="120" as="geometry" />
        </mxCell>
        <mxCell id="LKzzzDuSQU892FBYnvWB-128" value="Log analytics workspace&lt;br&gt;" style="image;aspect=fixed;html=1;points=[];align=center;fontSize=12;image=img/lib/azure2/analytics/Log_Analytics_Workspaces.svg;" vertex="1" parent="1">
          <mxGeometry x="940" y="2900" width="64" height="64" as="geometry" />
        </mxCell>
        <mxCell id="LKzzzDuSQU892FBYnvWB-129" value="azure monitor" style="image;aspect=fixed;html=1;points=[];align=center;fontSize=12;image=img/lib/azure2/management_governance/Monitor.svg;" vertex="1" parent="1">
          <mxGeometry x="1140" y="2900" width="64" height="64" as="geometry" />
        </mxCell>
        <mxCell id="LKzzzDuSQU892FBYnvWB-130" value="application insight&lt;br&gt;" style="image;aspect=fixed;html=1;points=[];align=center;fontSize=12;image=img/lib/azure2/devops/Application_Insights.svg;" vertex="1" parent="1">
          <mxGeometry x="1376" y="2910" width="44" height="63" as="geometry" />
        </mxCell>
      </root>
    </mxGraphModel>
  </diagram>
</mxfile>
